<svg xmlns="http://www.w3.org/2000/svg" viewBox="0 0 90.317 103.858">
  <defs>
    <style>
      .cls-1 {
        fill: #0f2139;
      }
    </style>
  </defs>
  <title>Ресурс 1</title>
  <g id="Шар_2" data-name="Шар 2">
    <g id="OBJECTS">
      <g>
        <g>
          <path class="cls-1" d="M4.955,9.909A4.955,4.955,0,1,1,9.909,4.955,4.954,4.954,0,0,1,4.955,9.909Z"/>
          <path class="cls-1" d="M21.036,9.909A4.955,4.955,0,1,1,25.99,4.955,4.954,4.954,0,0,1,21.036,9.909Z"/>
          <path class="cls-1" d="M37.118,9.909a4.955,4.955,0,1,1,4.954-4.954A4.954,4.954,0,0,1,37.118,9.909Z"/>
          <path class="cls-1" d="M53.2,9.909a4.955,4.955,0,1,1,4.955-4.954A4.954,4.954,0,0,1,53.2,9.909Z"/>
          <path class="cls-1" d="M69.281,9.909a4.955,4.955,0,1,1,4.954-4.954A4.954,4.954,0,0,1,69.281,9.909Z"/>
          <path class="cls-1" d="M85.363,9.909a4.955,4.955,0,1,1,4.954-4.954A4.954,4.954,0,0,1,85.363,9.909Z"/>
        </g>
        <g>
          <path class="cls-1" d="M4.955,25.567a4.955,4.955,0,1,1,4.954-4.954A4.954,4.954,0,0,1,4.955,25.567Z"/>
          <path class="cls-1" d="M21.036,25.567a4.955,4.955,0,1,1,4.954-4.954A4.954,4.954,0,0,1,21.036,25.567Z"/>
          <path class="cls-1" d="M37.118,25.567a4.955,4.955,0,1,1,4.954-4.954A4.954,4.954,0,0,1,37.118,25.567Z"/>
          <path class="cls-1" d="M53.2,25.567a4.955,4.955,0,1,1,4.955-4.954A4.954,4.954,0,0,1,53.2,25.567Z"/>
          <path class="cls-1" d="M69.281,25.567a4.955,4.955,0,1,1,4.954-4.954A4.954,4.954,0,0,1,69.281,25.567Z"/>
          <path class="cls-1" d="M85.363,25.567a4.955,4.955,0,1,1,4.954-4.954A4.954,4.954,0,0,1,85.363,25.567Z"/>
        </g>
        <g>
          <path class="cls-1" d="M4.955,41.226a4.955,4.955,0,1,1,4.954-4.954A4.955,4.955,0,0,1,4.955,41.226Z"/>
          <path class="cls-1" d="M21.036,41.226a4.955,4.955,0,1,1,4.954-4.954A4.955,4.955,0,0,1,21.036,41.226Z"/>
          <path class="cls-1" d="M37.118,41.226a4.955,4.955,0,1,1,4.954-4.954A4.955,4.955,0,0,1,37.118,41.226Z"/>
          <path class="cls-1" d="M53.2,41.226a4.955,4.955,0,1,1,4.955-4.954A4.955,4.955,0,0,1,53.2,41.226Z"/>
          <path class="cls-1" d="M69.281,41.226a4.955,4.955,0,1,1,4.954-4.954A4.955,4.955,0,0,1,69.281,41.226Z"/>
          <path class="cls-1" d="M85.363,41.226a4.955,4.955,0,1,1,4.954-4.954A4.955,4.955,0,0,1,85.363,41.226Z"/>
        </g>
        <g>
          <path class="cls-1" d="M4.955,56.884A4.955,4.955,0,1,1,9.909,51.93,4.955,4.955,0,0,1,4.955,56.884Z"/>
          <path class="cls-1" d="M21.036,56.884A4.955,4.955,0,1,1,25.99,51.93,4.955,4.955,0,0,1,21.036,56.884Z"/>
          <path class="cls-1" d="M37.118,56.884a4.955,4.955,0,1,1,4.954-4.954A4.955,4.955,0,0,1,37.118,56.884Z"/>
          <path class="cls-1" d="M53.2,56.884a4.955,4.955,0,1,1,4.955-4.954A4.955,4.955,0,0,1,53.2,56.884Z"/>
          <path class="cls-1" d="M69.281,56.884a4.955,4.955,0,1,1,4.954-4.954A4.955,4.955,0,0,1,69.281,56.884Z"/>
          <path class="cls-1" d="M85.363,56.884a4.955,4.955,0,1,1,4.954-4.954A4.955,4.955,0,0,1,85.363,56.884Z"/>
        </g>
        <g>
          <path class="cls-1" d="M4.955,72.542a4.955,4.955,0,1,1,4.954-4.955A4.955,4.955,0,0,1,4.955,72.542Z"/>
          <path class="cls-1" d="M21.036,72.542a4.955,4.955,0,1,1,4.954-4.955A4.955,4.955,0,0,1,21.036,72.542Z"/>
          <path class="cls-1" d="M37.118,72.542a4.955,4.955,0,1,1,4.954-4.955A4.955,4.955,0,0,1,37.118,72.542Z"/>
          <path class="cls-1" d="M53.2,72.542a4.955,4.955,0,1,1,4.955-4.955A4.955,4.955,0,0,1,53.2,72.542Z"/>
          <path class="cls-1" d="M69.281,72.542a4.955,4.955,0,1,1,4.954-4.955A4.955,4.955,0,0,1,69.281,72.542Z"/>
          <path class="cls-1" d="M85.363,72.542a4.955,4.955,0,1,1,4.954-4.955A4.955,4.955,0,0,1,85.363,72.542Z"/>
        </g>
        <g>
          <path class="cls-1" d="M4.955,88.2a4.955,4.955,0,1,1,4.954-4.955A4.955,4.955,0,0,1,4.955,88.2Z"/>
          <path class="cls-1" d="M21.036,88.2a4.955,4.955,0,1,1,4.954-4.955A4.955,4.955,0,0,1,21.036,88.2Z"/>
          <path class="cls-1" d="M37.118,88.2a4.955,4.955,0,1,1,4.954-4.955A4.955,4.955,0,0,1,37.118,88.2Z"/>
          <path class="cls-1" d="M53.2,88.2a4.955,4.955,0,1,1,4.955-4.955A4.955,4.955,0,0,1,53.2,88.2Z"/>
          <path class="cls-1" d="M69.281,88.2a4.955,4.955,0,1,1,4.954-4.955A4.955,4.955,0,0,1,69.281,88.2Z"/>
          <path class="cls-1" d="M85.363,88.2a4.955,4.955,0,1,1,4.954-4.955A4.955,4.955,0,0,1,85.363,88.2Z"/>
        </g>
        <g>
          <path class="cls-1" d="M4.955,103.858A4.955,4.955,0,1,1,9.909,98.9,4.954,4.954,0,0,1,4.955,103.858Z"/>
          <path class="cls-1" d="M21.036,103.858A4.955,4.955,0,1,1,25.99,98.9,4.954,4.954,0,0,1,21.036,103.858Z"/>
          <path class="cls-1" d="M37.118,103.858A4.955,4.955,0,1,1,42.072,98.9,4.954,4.954,0,0,1,37.118,103.858Z"/>
          <path class="cls-1" d="M53.2,103.858A4.955,4.955,0,1,1,58.154,98.9,4.954,4.954,0,0,1,53.2,103.858Z"/>
          <path class="cls-1" d="M69.281,103.858A4.955,4.955,0,1,1,74.235,98.9,4.954,4.954,0,0,1,69.281,103.858Z"/>
          <path class="cls-1" d="M85.363,103.858A4.955,4.955,0,1,1,90.317,98.9,4.954,4.954,0,0,1,85.363,103.858Z"/>
        </g>
      </g>
    </g>
  </g>
</svg>
