<svg height="512pt" viewBox="0 -5 512 512" width="512pt" xmlns="http://www.w3.org/2000/svg"><path fill="#e0a458" d="m21.710938 501.015625 21.996093-137.53125c-28.617187-38.558594-43.707031-83.488281-43.707031-130.351563 0-62.558593 26.820312-121.285156 75.519531-165.363281 48.285157-43.703125 112.378907-67.769531 180.480469-67.769531s132.195312 24.066406 180.480469 67.769531c48.699219 44.078125 75.519531 102.804688 75.519531 165.363281 0 62.558594-26.820312 121.285157-75.519531 165.363282-48.285157 43.703125-112.378907 67.769531-180.480469 67.769531-32.910156 0-64.894531-5.597656-95.152344-16.644531zm234.289062-471.015625c-124.617188 0-226 91.125-226 203.132812 0 42.230469 14.289062 82.71875 41.324219 117.089844l4.058593 5.160156-15.945312 99.71875 101.601562-37.53125 5.300782 2.066407c28.359375 11.035156 58.527344 16.628906 89.660156 16.628906 124.617188 0 226-91.125 226-203.132813 0-112.007812-101.382812-203.132812-226-203.132812zm0 0"/><path fill="#e0a458" d="m86.484375 309.386719 154.882813-154.050781 57.277343 45.734374 123.898438-48.039062-144.105469 147.058594-56.589844-44.277344zm140.304687-87.796875 49 38.335937 28.15625-28.734375-10.539062 4.089844-49.851562-39.804688-32.527344 32.351563zm0 0"/></svg>