<svg id="Шар_1" data-name="Шар 1" xmlns="http://www.w3.org/2000/svg" xmlns:xlink="http://www.w3.org/1999/xlink" viewBox="0 0 547.458 108.75">
  <defs>
    <style>
      .cls-1, .cls-12, .cls-18, .cls-3, .cls-5, .cls-7, .cls-9 {
        fill: none;
      }

      .cls-2 {
        clip-path: url(#clip-path);
      }

      .cls-12, .cls-18, .cls-3, .cls-5, .cls-7, .cls-9 {
        stroke: #000;
        stroke-linecap: round;
        stroke-linejoin: round;
      }

      .cls-3 {
        stroke-width: 12px;
      }

      .cls-4 {
        clip-path: url(#clip-path-2);
      }

      .cls-5 {
        stroke-width: 8px;
      }

      .cls-6 {
        clip-path: url(#clip-path-3);
      }

      .cls-7 {
        stroke-width: 9px;
      }

      .cls-8 {
        clip-path: url(#clip-path-4);
      }

      .cls-9 {
        stroke-width: 10px;
      }

      .cls-10 {
        clip-path: url(#clip-path-5);
      }

      .cls-11 {
        clip-path: url(#clip-path-6);
      }

      .cls-12 {
        stroke-width: 7px;
      }

      .cls-13 {
        clip-path: url(#clip-path-7);
      }

      .cls-14 {
        clip-path: url(#clip-path-8);
      }

      .cls-15 {
        clip-path: url(#clip-path-9);
      }

      .cls-16 {
        clip-path: url(#clip-path-10);
      }

      .cls-17 {
        clip-path: url(#clip-path-11);
      }

      .cls-18 {
        stroke-width: 6px;
      }

      .cls-19 {
        clip-path: url(#clip-path-12);
      }

      .cls-20 {
        clip-path: url(#clip-path-13);
      }

      .cls-21 {
        clip-path: url(#clip-path-14);
      }

      .cls-22 {
        clip-path: url(#clip-path-15);
      }

      .cls-23 {
        clip-path: url(#clip-path-16);
      }

      .cls-24 {
        clip-path: url(#clip-path-17);
      }
      
      #c-hash {
        animation-delay: 0.8s;
      }

      #h-hash {
        animation-delay: 1s;
      }

      #e-hash {
        animation-delay: 1.2s;
      }

      #r-hash {
        animation-delay: 1.4s;
      }

      #e-hash2 {
        animation-delay: 1.65s;
      }

      #p-hash {
        animation-delay: 1.9s;
      }

      #a-hash {
        animation-delay: 2.1s;
      }

      #k-hash {
        animation-delay: 2.3s;
      }

      #h-hash2 {
        animation-delay: 2.5s;
      }

      #i-hash {
        animation-delay: 2.7s;
      }

      #n-hash {
        animation-delay: 2.9s;
      }

      #k-hash2 {
        animation-delay: 3.1s;
      }

      #i-hash2 {
        animation-delay: 3.35s;
      }

      #r-hash-2 {
        animation-delay: 3.55s;
      }

      #i-hash3 {
        animation-delay: 3.75s;
      }

      #l-hash {
        animation-delay: 3.95s;
      }

      #l-hash2 {
        animation-delay: 4.1s;
      }

      polyline {
        stroke-dasharray: 1000;
        stroke-dashoffset: 1000;
        animation: dash 1s linear forwards;
      }

      @keyframes dash {
        to {
          stroke-dashoffset: 0;
        }
      }
    </style>
    <clipPath id="clip-path" transform="translate(-8.667 -87.5)">
      <path id="c" class="cls-1" d="M85.627,105.462a10.24,10.24,0,0,1,1.734,4.386q0,2.246-1.224,2.857a27.967,27.967,0,0,0-1.428-2.857q-1.43,3.06-2.856,6.223-2.142,4.08-4.386,4.08a14.05,14.05,0,0,1-2.55-.408q-1.836-.408-1.836-.817,0-1.222,3.876-6.017,4.794-6.018,5.1-6.426-3.266-5.814-11.322-5.815a49.28,49.28,0,0,0-19.89,4.59A64.5,64.5,0,0,0,23.2,128.514q-6.732,10.1-6.732,18.973,0,8.364,6.426,12.648,5.4,3.57,14.28,3.57,20.7,0,43.554-17.136a2.477,2.477,0,0,1,1.224-.612.27.27,0,0,1,.306.306,2.34,2.34,0,0,1-1.02,1.836,63.254,63.254,0,0,1-6.528,4.794q-18.462,12.648-38.454,12.648-11.118,0-18.054-3.57-8.976-4.691-8.976-14.688,0-9.487,7.752-19.992a70.021,70.021,0,0,1,15.708-15.3A71.958,71.958,0,0,1,48.6,103.422q12.24-4.894,22.746-4.895a22.425,22.425,0,0,1,6.936,1.122q4.284,1.326,5.814,3.672,2.754-3.468,2.754-5.152t1.326-1.682q.712,0,.714,1.223Q88.891,99.038,85.627,105.462Z"/>
    </clipPath>
    <clipPath id="clip-path-2" transform="translate(-8.667 -87.5)">
      <path id="h" class="cls-1" d="M102.864,161.461q-5.1,0-5.1-6.732,0-5.915,3.672-15.606Q93.072,148.1,84.3,158.4a10.2,10.2,0,0,1-.51,2.55,8.31,8.31,0,0,1-2.856,1.632,11.737,11.737,0,0,1-3.264,1.122.091.091,0,0,1-.1-.1,21.254,21.254,0,0,1,1.734-4.386q5.406-12.852,10.914-25.705a153.361,153.361,0,0,1,13.056-24.479,5.141,5.141,0,0,1-.2-1.429,2.651,2.651,0,0,1,.1-.815,58.982,58.982,0,0,1,3.774-5.815q1.122-1.222,4.386-1.224,2.652,0,2.652,1.02,0-.4-6.63,9.589A199.375,199.375,0,0,0,85.32,154.015q3.161-3.06,8.772-9.435t8.466-9.129a2.346,2.346,0,0,1,.918-.409,4.775,4.775,0,0,1,2.55-1.326v.1h.1a1.135,1.135,0,0,1,.51-.1q.712,0,.714,1.632a10.551,10.551,0,0,1-.714,3.265,4.948,4.948,0,0,1-1.53,2.55l-1.836,6.528a27.449,27.449,0,0,0-.918,6.834q0,4.284,2.142,4.284,2.243,0,9.69-6.222c.136,0,.2.1.2.306a2.462,2.462,0,0,1-.612,1.326,17.835,17.835,0,0,1-4.692,4.9A10.778,10.778,0,0,1,102.864,161.461Z"/>
    </clipPath>
    <clipPath id="clip-path-3" transform="translate(-8.667 -87.5)">
      <path id="e" class="cls-1" d="M137.338,144.936q0,.41-1.428.409a16.233,16.233,0,0,1-1.836-.153,16.233,16.233,0,0,0-1.836-.153,59.281,59.281,0,0,0-11.526,1.428q-3.572,6.528-3.57,9.792,0,3.571,3.672,3.57a12.894,12.894,0,0,0,6.834-2.448,35.2,35.2,0,0,0,5.406-4.693,34.427,34.427,0,0,1,2.55-2.447c.2,0,.306.137.306.408q0,2.347-3.774,5.3-8.162,6.224-17.136,6.222-2.448,0-3.162-1.02a4.859,4.859,0,0,1-.51-2.652q0-3.772,3.366-10.914a.778.778,0,0,1-.1-.306,10.557,10.557,0,0,1,.918-1.429q.612-1.121,1.734-3.161,4.488-7.346,9.894-8.773a9.981,9.981,0,0,1,2.142-.3c.475,0,.714.1.714.3q0,.41-1.326,1.327-2.654,1.938-6.528,8.567a37.506,37.506,0,0,1,9.18-.611,14.876,14.876,0,0,0,3.06-8.466c0-.748-.086-1.19-.255-1.326a2.286,2.286,0,0,0-1.224-.2c-.647,0-.969-.169-.969-.51s.544-.646,1.632-.918a11.27,11.27,0,0,1,2.55-.408q2.754,0,2.754,2.549a11.2,11.2,0,0,1-1.836,5.3,10.909,10.909,0,0,1-3.672,4.183Q137.338,144.121,137.338,144.936Z"/>
    </clipPath>
    <clipPath id="clip-path-4" transform="translate(-8.667 -87.5)">
      <path id="r" class="cls-1" d="M166.611,136.266a6.712,6.712,0,0,1-1.07,3.57,3.276,3.276,0,0,1-2.908,1.735c-.545,0-.816-.2-.816-.613a4.407,4.407,0,0,1,.1-.816,4.456,4.456,0,0,0,.1-.815q0-1.936-1.326-1.939-2.347,0-8.159,5.691a54.157,54.157,0,0,0-6.936,7.466,24.346,24.346,0,0,0-3.367,6.858,16.982,16.982,0,0,1-.816,2.439q-.408.813-2.855,1.929a10.259,10.259,0,0,1-3.367,1.118q-.714,0-.612-.508,2.958-4.982,8.67-19.521l1.122-2.948q0-.2-.51-.2c-.341,0-.51-.1-.51-.305q0,.1,3.672-6.2a4.228,4.228,0,0,1,1.785-1.219,5.847,5.847,0,0,1,2.193-.61q1.122,0,1.122.918a3.1,3.1,0,0,1-.306,1.122q-2.347,4.8-6.221,14.79a97.246,97.246,0,0,1,13.668-13.26q2.853-2.243,4.9-2.244Q166.611,132.7,166.611,136.266Z"/>
    </clipPath>
    <clipPath id="clip-path-5" transform="translate(-8.667 -87.5)">
      <path id="e-2" data-name="e" class="cls-1" d="M186.6,144.936q0,.41-1.428.409a16.233,16.233,0,0,1-1.836-.153,16.233,16.233,0,0,0-1.836-.153,59.281,59.281,0,0,0-11.526,1.428q-3.571,6.528-3.57,9.792,0,3.571,3.672,3.57a12.9,12.9,0,0,0,6.834-2.448,35.2,35.2,0,0,0,5.406-4.693,33.937,33.937,0,0,1,2.55-2.447c.2,0,.306.137.306.408q0,2.347-3.774,5.3-8.161,6.224-17.136,6.222-2.448,0-3.162-1.02a4.859,4.859,0,0,1-.51-2.652q0-3.772,3.366-10.914a.778.778,0,0,1-.1-.306,10.557,10.557,0,0,1,.918-1.429q.612-1.121,1.734-3.161,4.487-7.346,9.894-8.773a9.981,9.981,0,0,1,2.142-.3c.475,0,.714.1.714.3q0,.41-1.326,1.327-2.654,1.938-6.528,8.567a37.506,37.506,0,0,1,9.18-.611,14.876,14.876,0,0,0,3.06-8.466c0-.748-.086-1.19-.255-1.326a2.288,2.288,0,0,0-1.224-.2c-.647,0-.969-.169-.969-.51s.543-.646,1.632-.918a11.27,11.27,0,0,1,2.55-.408q2.754,0,2.754,2.549a11.2,11.2,0,0,1-1.836,5.3,10.909,10.909,0,0,1-3.672,4.183Q186.6,144.121,186.6,144.936Z"/>
    </clipPath>
    <clipPath id="clip-path-6" transform="translate(-8.667 -87.5)">
      <path id="p" class="cls-1" d="M195.476,162.073q-5.2,0-7.65-1.734-8.77,17.952-8.772,26.214,0,5,2.448,5,2.038,0,5.151-2.754t3.009-2.754c.067,0,.1.067.1.2q0,2.242-5,6.018a10.391,10.391,0,0,1-5.814,2.346q-4.488,0-4.488-6.631,0-8.26,11.424-30.191a5.5,5.5,0,0,1-.2-1.53q0-3.874,4.08-5.61,4.69-8.262,11.016-17.341-2.654-4.078-4.794-5.4a.6.6,0,0,1-.306-.511q0-.712,1.326-1.836a3.808,3.808,0,0,1,2.142-1.122q1.018,0,4.386,4.9,3.672-5.2,4.9-5.2c.271,0,.408.171.408.51q0,.207-4.08,6.324,6.324,9.794,6.324,16.321,0,5.408-5.1,10.1T195.476,162.073Zm11.628-11.73q0-6.526-5.1-15.1-4.183,6.528-8.16,13.77a2.586,2.586,0,0,1,1.224-.408c.34,0,.51.137.51.408q0,.918-3.162,2.55-1.53,2.858-2.958,5.61,1.734,2.856,7.14,2.856a11.012,11.012,0,0,0,7.548-2.6A8.954,8.954,0,0,0,207.1,150.343Z"/>
    </clipPath>
    <clipPath id="clip-path-7" transform="translate(-8.667 -87.5)">
      <path id="a" class="cls-1" d="M235.562,162.277q-4.591,0-4.59-6.631a47.29,47.29,0,0,1,1.326-10.1,52.44,52.44,0,0,1-8.262,10.056q-6.631,6.674-10.506,6.672-1.94,0-1.938-2.662,0-6.242,5.814-15.761,6.22-10.44,12.035-9.929a12.565,12.565,0,0,1,5.1-1.636q.612,0,4.182.509a7.31,7.31,0,0,1,2.346-.509q1.121,0,1.121,1.016a10.973,10.973,0,0,1-1.121,3.454q-1.123,2.541-1.735,2.744a31.738,31.738,0,0,0-2.5,7.673,40,40,0,0,0-1.07,8.179q0,3.864,2.244,3.862,2.142,0,5.2-2.754t2.958-2.754a.181.181,0,0,1,.2.2q0,2.244-5.1,6.018A9.958,9.958,0,0,1,235.562,162.277Zm.2-27.133a4.757,4.757,0,0,0-1.938-.407,9.292,9.292,0,0,0-6.936,3.468,40.722,40.722,0,0,0-5.712,8.517,56.343,56.343,0,0,0-4.284,9.945,3.974,3.974,0,0,0-.306,1.326c0,.477.169.714.51.714a5.043,5.043,0,0,0,2.346-1.224,39.044,39.044,0,0,0,9.588-10.1Q231.175,144.019,235.766,135.144Z"/>
    </clipPath>
    <clipPath id="clip-path-8" transform="translate(-8.667 -87.5)">
      <path id="k" class="cls-1" d="M256.674,145.243v.306Q268,134.941,273.4,132.084a4.072,4.072,0,0,1,1.836-.408q1.734,0,1.734.918,0,1.328-4.59,3.979a99.232,99.232,0,0,0-15.2,10.71,34.557,34.557,0,0,0,2.958,6.834q2.754,4.8,5,4.794,2.04,0,4.029-3.519a36.044,36.044,0,0,1,2.092-3.519c.2,0,.3.239.3.714a2.031,2.031,0,0,1-.2.918,30.069,30.069,0,0,1-2.346,5.508,5.832,5.832,0,0,1-5,2.856q-3.267,0-6.223-4.59a19.66,19.66,0,0,1-3.06-7.65,49.747,49.747,0,0,0-4.9,6.681,1.928,1.928,0,0,1,.1.607,5.657,5.657,0,0,1-2.04,4,6.049,6.049,0,0,1-4.182,1.973c-.475,0-.678-.17-.612-.508q.716-1.02,2.04-3.157,2.346-4.788,7.242-14.157a23.459,23.459,0,0,1-.612-3.157q0-1.731,3.162-2.647a221.613,221.613,0,0,1,15.708-30.245,3.61,3.61,0,0,1-.307-1.427,1.807,1.807,0,0,1,.2-.814,51.758,51.758,0,0,1,3.774-5.8q1.122-1.221,4.387-1.223,2.65,0,2.651,1.02,0-.1-4.487,6.528-7.447,11.223-15,25.3Q256.572,142.49,256.674,145.243Z"/>
    </clipPath>
    <clipPath id="clip-path-9" transform="translate(-8.667 -87.5)">
      <path id="h-2" data-name="h" class="cls-1" d="M294.516,161.461q-5.1,0-5.1-6.732,0-5.915,3.672-15.606-8.365,8.976-17.136,19.278a10.2,10.2,0,0,1-.51,2.55,8.31,8.31,0,0,1-2.856,1.632,11.759,11.759,0,0,1-3.264,1.122.091.091,0,0,1-.1-.1,21.187,21.187,0,0,1,1.734-4.386q5.4-12.852,10.913-25.705a153.357,153.357,0,0,1,13.057-24.479,5.1,5.1,0,0,1-.2-1.429,2.655,2.655,0,0,1,.1-.815,58.936,58.936,0,0,1,3.775-5.815q1.12-1.222,4.385-1.224,2.652,0,2.653,1.02,0-.4-6.63,9.589a199.287,199.287,0,0,0-22.032,43.656q3.161-3.06,8.771-9.435t8.467-9.129a2.331,2.331,0,0,1,.918-.409,4.772,4.772,0,0,1,2.55-1.326v.1h.1a1.139,1.139,0,0,1,.511-.1q.712,0,.714,1.632a10.551,10.551,0,0,1-.714,3.265,4.961,4.961,0,0,1-1.53,2.55q-.919,3.264-1.836,6.528a27.449,27.449,0,0,0-.918,6.834q0,4.284,2.141,4.284,2.244,0,9.691-6.222c.135,0,.2.1.2.306a2.462,2.462,0,0,1-.612,1.326,17.824,17.824,0,0,1-4.693,4.9A10.775,10.775,0,0,1,294.516,161.461Z"/>
    </clipPath>
    <clipPath id="clip-path-10" transform="translate(-8.667 -87.5)">
      <path id="i" class="cls-1" d="M306.959,161.461q-5,0-5-5.1a22.466,22.466,0,0,1,2.143-8.568q1.121-2.652,4.283-8.67.612-1.324,1.938-3.775,1.121-1.733,4.182-1.733l-.1.1.1.1a.692.692,0,0,1,.51-.2c.408,0,.612.341.612,1.019a9.345,9.345,0,0,1-1.173,3.621q-1.173,2.4-2.193,2.805-1.938,3.672-3.876,7.243-2.448,4.693-2.448,7.65,0,2.856,3.06,2.856,2.243,0,6.426-3.111t4.284-3.111a.091.091,0,0,1,.1.1,3.021,3.021,0,0,1-.817,1.531,20.562,20.562,0,0,1-5.406,4.794A12.309,12.309,0,0,1,306.959,161.461Zm14.892-38.556a.451.451,0,0,1,.51.51q0,1.528-2.7,3.263a8.919,8.919,0,0,1-4.437,1.735q-.41,0-.408-1.735,0-2.242.612-2.345t3.366-.817A14.375,14.375,0,0,1,321.851,122.905Z"/>
    </clipPath>
    <clipPath id="clip-path-11" transform="translate(-8.667 -87.5)">
      <path id="n" class="cls-1" d="M354.491,152.587c.067,0,.1.068.1.2a3.28,3.28,0,0,1-.51,1.428,17.767,17.767,0,0,1-4.692,4.9,11.117,11.117,0,0,1-6.222,2.346q-6.325,0-6.324-6.834,0-3.264,2.652-11.833a17.36,17.36,0,0,0,.918-3.876c0-.543-.171-.816-.51-.816a5.262,5.262,0,0,0-2.448,1.422,69.512,69.512,0,0,0-9.027,9.7,66.07,66.07,0,0,0-7.395,10.918,5.3,5.3,0,0,1-2.448,1.779,8.29,8.29,0,0,1-2.856.964q-.714,0-.612-.508a162.819,162.819,0,0,0,9.792-20.234q.406-1.118.817-2.235c0-.136-.171-.2-.511-.2s-.51-.1-.51-.305q0-.1,3.672-6.2a4.233,4.233,0,0,1,1.836-1.219,6.217,6.217,0,0,1,2.244-.61q1.018,0,1.02.918t-8.058,17.646a129.526,129.526,0,0,1,9.384-9.69q7.65-7.139,10-7.141,1.122,0,1.122,1.734a25.318,25.318,0,0,1-1.02,5.508q-3.162,11.935-3.162,14.383,0,4.08,2.958,4.08,2.243,0,5.967-3.111T354.491,152.587Z"/>
    </clipPath>
    <clipPath id="clip-path-12" transform="translate(-8.667 -87.5)">
      <path id="k-2" data-name="k" class="cls-1" d="M476.175,112.2c-.138,0-.2-.034-.2-.1q3.159-3.771,3.162-5.508,0-2.957-3.775-2.958-9.894,0-30.294,16.932a249.259,249.259,0,0,0-26.519,25.5Q440.371,164.113,457,169.213a11.908,11.908,0,0,0,3.162.612q1.122,0,1.122-.612t-1.223-1.734c-.817-.75-1.224-1.292-1.224-1.632a.36.36,0,0,1,.407-.409q.714,0,3.01,2.245t2.3,3.06q0,1.224-3.061,1.224-14.074,0-45.593-22.95-2.349,3.06-2.857,3.06c-.068,0-.1-.067-.1-.2q0-1.53,1.937-3.57l-2.04-1.531Q396,170.844,382.845,170.845q-12.956,0-12.954-12.546a27.59,27.59,0,0,1,.2-3.264q.916-6.526,2.345-6.528c.136,0,.238.305.306.918a18.623,18.623,0,0,1-.255,2.5,18.485,18.485,0,0,0-.255,2.5,20.964,20.964,0,0,0,2.244,10.2,9.187,9.187,0,0,0,8.466,5q10.914,0,27.031-25.092-22.239-17.442-22.237-28.765,0-9.688,19.279-12.443,7.547-1.122,27.54-1.122,1.017,0,3.059-.1h3.061c.408,0,.611.138.611.408q0,.715-2.039,3.112t-8.568,13.106q-5,8.262-15.4,24.582l2.143,1.837a254.652,254.652,0,0,1,26.01-27.234q19.378-16.93,31.721-16.933,7.445,0,7.447,4.794a4.92,4.92,0,0,1-.306,1.734,7.5,7.5,0,0,1-2.6,3.06A6.243,6.243,0,0,1,476.175,112.2Zm-43.044-6.223q-6.732-.1-9.385-.1-7.14,0-12.851.305-18.055,1.225-18.054,9.792,0,5.305,7.548,13.464,3.366,3.672,12.036,11.322,2.853-4.69,9.588-16.217,2.141-3.876,6.834-11.22v-.408q0-1.019,1.836-3.571Q431.905,107.606,433.131,105.972Z"/>
    </clipPath>
    <clipPath id="clip-path-13" transform="translate(-8.667 -87.5)">
      <path id="i-2" data-name="i" class="cls-1" d="M445.778,161.461q-5,0-5-5.1a22.466,22.466,0,0,1,2.143-8.568q1.12-2.652,4.283-8.67.612-1.324,1.939-3.775,1.12-1.733,4.181-1.733l-.1.1.1.1a.694.694,0,0,1,.51-.2c.408,0,.612.341.612,1.019a9.327,9.327,0,0,1-1.173,3.621q-1.173,2.4-2.193,2.805-1.938,3.672-3.876,7.243-2.448,4.693-2.447,7.65,0,2.856,3.059,2.856,2.243,0,6.426-3.111t4.284-3.111a.091.091,0,0,1,.1.1,3.021,3.021,0,0,1-.817,1.531,20.546,20.546,0,0,1-5.406,4.794A12.309,12.309,0,0,1,445.778,161.461Zm14.892-38.556a.451.451,0,0,1,.511.51q0,1.528-2.7,3.263a8.922,8.922,0,0,1-4.438,1.735q-.408,0-.407-1.735,0-2.242.611-2.345t3.366-.817A14.375,14.375,0,0,1,460.67,122.905Z"/>
    </clipPath>
    <clipPath id="clip-path-14" transform="translate(-8.667 -87.5)">
      <path id="r-2" data-name="r" class="cls-1" d="M486.478,136.266a6.706,6.706,0,0,1-1.072,3.57,3.274,3.274,0,0,1-2.907,1.735c-.545,0-.815-.2-.815-.613a4.391,4.391,0,0,1,.1-.816,4.37,4.37,0,0,0,.1-.815q0-1.936-1.325-1.939-2.349,0-8.161,5.691a54.349,54.349,0,0,0-6.936,7.466A24.342,24.342,0,0,0,462.1,157.4a17.137,17.137,0,0,1-.817,2.439q-.408.813-2.856,1.929a10.26,10.26,0,0,1-3.365,1.118q-.716,0-.613-.508,2.958-4.982,8.67-19.521l1.122-2.948c0-.136-.171-.2-.51-.2s-.51-.1-.51-.305q0,.1,3.673-6.2a4.21,4.21,0,0,1,1.784-1.219,5.847,5.847,0,0,1,2.193-.61q1.12,0,1.122.918a3.09,3.09,0,0,1-.305,1.122q-2.349,4.8-6.223,14.79a97.355,97.355,0,0,1,13.668-13.26q2.855-2.243,4.9-2.244Q486.477,132.7,486.478,136.266Z"/>
    </clipPath>
    <clipPath id="clip-path-15" transform="translate(-8.667 -87.5)">
      <path id="i-3" data-name="i" class="cls-1" d="M488.312,161.461q-5,0-5-5.1a22.466,22.466,0,0,1,2.143-8.568q1.12-2.652,4.283-8.67.612-1.324,1.939-3.775,1.12-1.733,4.181-1.733l-.1.1.1.1a.694.694,0,0,1,.51-.2c.408,0,.612.341.612,1.019a9.339,9.339,0,0,1-1.172,3.621q-1.175,2.4-2.194,2.805-1.938,3.672-3.876,7.243-2.448,4.693-2.447,7.65,0,2.856,3.06,2.856,2.243,0,6.425-3.111t4.285-3.111a.091.091,0,0,1,.1.1,3.017,3.017,0,0,1-.816,1.531,20.567,20.567,0,0,1-5.407,4.794A12.309,12.309,0,0,1,488.312,161.461ZM503.2,122.905a.451.451,0,0,1,.511.51q0,1.528-2.7,3.263a8.922,8.922,0,0,1-4.438,1.735q-.408,0-.407-1.735,0-2.242.611-2.345t3.367-.817A14.37,14.37,0,0,1,503.2,122.905Z"/>
    </clipPath>
    <clipPath id="clip-path-16" transform="translate(-8.667 -87.5)">
      <path id="l" class="cls-1" d="M504.121,156.361q0,1.938,1.53,1.938,2.142,0,10-6.018c.135,0,.2.137.2.407a3.593,3.593,0,0,1-1.02,2.143,20.032,20.032,0,0,1-5.151,4.08,21.551,21.551,0,0,1-6.069,2.55,11.067,11.067,0,0,1-1.938.2q-2.856,0-2.856-2.958a18.2,18.2,0,0,1,1.326-5.61q7.548-19.788,23.97-44.064a5.141,5.141,0,0,1-.2-1.429,2.62,2.62,0,0,1,.1-.815,46,46,0,0,1,3.774-5.763q1.121-1.275,4.386-1.276,2.65,0,2.652,1.02,0-.4-6.732,9.792a324.264,324.264,0,0,0-20.91,36.823Q504.121,153.607,504.121,156.361Z"/>
    </clipPath>
    <clipPath id="clip-path-17" transform="translate(-8.667 -87.5)">
      <path id="l-2" data-name="l" class="cls-1" d="M524.213,156.361q0,1.938,1.53,1.938,2.142,0,10-6.018c.135,0,.2.137.2.407a3.591,3.591,0,0,1-1.019,2.143,20.039,20.039,0,0,1-5.152,4.08,21.535,21.535,0,0,1-6.068,2.55,11.067,11.067,0,0,1-1.938.2q-2.857,0-2.856-2.958a18.225,18.225,0,0,1,1.325-5.61q7.549-19.788,23.971-44.064a5.1,5.1,0,0,1-.2-1.429,2.62,2.62,0,0,1,.1-.815,46,46,0,0,1,3.774-5.763q1.121-1.275,4.386-1.276,2.65,0,2.652,1.02,0-.4-6.732,9.792a324.417,324.417,0,0,0-20.911,36.823Q524.212,153.607,524.213,156.361Z"/>
    </clipPath>
  </defs>
  <title>name</title>
  <g id="c-group">
    <g class="cls-2">
      <polyline id="c-hash" class="cls-3" points="80.224 6 79 12.25 76.5 16.833 73.167 23 68.902 29.5 66 34.833 60.833 31.833 78.333 26.333 76.5 20.417 73 15.667 67.5 12.25 56.333 12.25 45 15.333 31.5 21.833 15 36 6 50 6 66.5 12 73.5 22.333 77 38.167 76.205 49 73.333 58.833 68.667 65.333 64.667 71.167 60.5 74.333 57.833"/>
    </g>
  </g>
  <g id="h-group">
    <g class="cls-4">
      <polyline id="h-hash" class="cls-5" points="103.5 8.987 101 15.333 97.667 21.333 88 37.167 81 51.833 70.167 79.5 76.167 68 87.313 56.5 93.5 50 96.5 47.667 97 44.243 94.5 53.333 91.5 65.5 91.5 70.5 94.167 72.333 98.667 71.5 103.5 68 105.723 63.833"/>
    </g>
  </g>
  <g id="e-group">
    <g class="cls-6">
      <polyline id="e-hash" class="cls-7" points="123.167 41.667 117.333 47.747 110.833 55.5 105.723 69.833 106.833 72.533 110.5 73.333 116.431 71.87 123.167 67.5 128 62.333 132.833 47.747 127.5 40.333 127.333 45.833 125.904 53.5 123.333 56.5 112 57.667 105.723 56.833"/>
    </g>
  </g>
  <g id="r-group">
    <g class="cls-8">
      <polyline id="r-hash" class="cls-9" points="139.333 39.333 138.167 49 135.333 59.273 131.167 68.5 127.667 78.041 134.333 64.667 139.333 59.273 146.932 50.521 153.333 47.747 155.167 50.167 155.167 54.833 153.333 56.5"/>
    </g>
  </g>
  <g id="e-group2">
    <g class="cls-10">
      <polyline id="e-hash2" class="cls-5" points="154.5 57.5 159.5 57.5 168.833 56.5 172.833 56.5 174.833 57 178 58.5 175.5 52.833 177 45.833 173.5 42.5 166.25 47.747 160.5 54.5 157.945 62.5 155.333 69 155.333 71.87 157.945 73.333 165.696 71.87 169.333 69.917 172.417 67.667 175 65.167 177.25 62.333"/>
    </g>
  </g>
  <g id="p-group">
    <g class="cls-11">
      <polyline id="p-hash" class="cls-12" points="188.583 60.14 182.208 63.75 179.466 67.375 179.958 71.207 183.333 73.25 190.083 73.25 195.333 70.625 199.083 66.695 200.458 60.14 197.833 51.25 194.458 45.375 189.962 39.625 186.958 36.628 191.458 34.25 200.458 34.875 198.437 38.75 190.708 50.375 184.106 60.75 175.583 76.25 171.708 85.875 168.708 96.375 168.708 103.625 171.583 105.25 175.208 104.375 179.466 101.125 181.958 97.25"/>
    </g>
  </g>
  <g id="a-group">
    <g class="cls-13">
      <polyline id="a-hash" class="cls-12" points="226.458 42.875 224.583 46.125 218.833 47.747 212.208 55.25 206.583 65.625 204.458 71.87 206.958 72.533 210.708 71.207 215.458 67 222.208 59.222 227.099 51.75 231.208 42.25 227.958 55.375 224.458 66.75 225.583 71.87 228.333 72.533 232.208 71.87 235.708 68.625 237.707 64.75"/>
    </g>
  </g>
  <g id="k-group">
    <g class="cls-14">
      <polyline id="k-hash" class="cls-5" points="270.708 9.625 265.083 20.25 253.561 40.913 243.333 62.375 235.208 78 245.208 60.875 252.958 55.125 262.208 48.25 268.958 43.813 242.708 50.25 248.208 64 251.583 70.375 255.958 72.5 259.583 71.207 262.083 66 263.333 62.875"/>
    </g>
  </g>
  <g id="h-group-2" data-name="h-group">
    <g class="cls-15">
      <polyline id="h-hash2" class="cls-5" points="295.458 9.375 282.708 31.5 273.708 49.25 264.833 70.125 262.958 77.375 266.958 69.5 271.958 64.125 279.833 55.25 285.583 49.625 288.208 47.75 289.958 44.228 286.083 55.375 282.208 67.75 284.583 71.207 288.333 72.625 291.458 70.5 292.333 66.75 294.083 68.625"/>
    </g>
  </g>
  <g id="i-group">
    <g class="cls-16">
      <polyline id="i-hash" class="cls-12" points="305.583 43.871 301.458 52.625 297.375 60.75 295.458 71.5 298.333 75.389 303.708 71.125 307.708 68.25 311.145 64.125 316.208 31.25 310.583 33.625 308.458 38.159 309.921 40.913 310.458 38.159"/>
    </g>
  </g>
  <g id="n-group">
    <g class="cls-17">
      <polyline id="n-hash" class="cls-18" points="322.958 41.5 316.458 58.375 307.083 77.875 315.021 65.5 319.208 60.875 323.458 56.5 326.183 53.254 331.208 49.625 336.958 43.871 330.958 66.125 330.708 70.875 334.708 72.5 338.708 71.875 343.958 67.5 345.926 64"/>
    </g>
  </g>
  <g id="k-group2">
    <g class="cls-19">
      <polyline id="k-hash2" class="cls-12" points="448.74 77.125 451.958 79.5 454.208 82.875 452.514 83.875 443.333 81.5 436.333 78.125 425.458 72 415.208 65.125 407.833 59.125 401.458 53.254 391.083 44.625 382.458 34 381.458 26.125 385.958 20.875 397.833 17.375 411.333 16.5 419.833 15.875 427.958 16.5 423.833 23.875 416.458 35.405 409.708 46.115 399.708 62.625 388.958 75.389 384.174 79.25 380.083 81.375 376.708 82.5 371.458 82.5 365.833 79.875 362.833 74.165 362.833 65 363.958 59 402.583 65.25 411.458 55.625 422.458 43.871 432.958 33.75 444.966 23.875 455.833 18.371 459.958 15.875 466.583 14.875 470.958 16 471.708 20.5 467.708 25.875"/>
    </g>
  </g>
  <g id="i-group2">
    <g class="cls-20">
      <polyline id="i-hash2" class="cls-12" points="443.833 44.375 441.039 49.625 439.333 54.75 435.833 62.5 433.833 68.5 435.583 72.125 438.208 72.125 443.083 71 447.583 67.25 449.964 63.75 453.833 33 449.964 33.875 447.958 37.375 446.833 40.913 449.964 37.375"/>
    </g>
  </g>
  <g id="r-group2">
    <g class="cls-21">
      <polyline id="r-hash-2" data-name="r-hash" class="cls-12" points="460.708 40.913 460.708 46.115 450.958 67.625 446.958 77 453.833 64.5 461.79 56 469.333 49.625 473.934 46.75 475.583 50.625 476.208 54.75"/>
    </g>
  </g>
  <g id="i-group3">
    <g class="cls-22">
      <polyline id="i-hash3" class="cls-18" points="486.458 43.871 484.458 50.5 480.333 58 476.958 65.75 476.958 70.625 479.083 72.375 485.208 71.125 490.151 67.75 492.497 64.375 495.958 34.5 492.497 33 488.958 43.208 492.497 37.625"/>
    </g>
  </g>
  <g id="l-group">
    <g class="cls-23">
      <polyline id="l-hash" class="cls-12" points="524.333 9.75 518.458 20.375 509.333 35.405 498.958 53.875 494.208 64.5 492.497 70.5 495.047 72 498.958 71.25 504.708 67.625 508.154 63.625"/>
    </g>
  </g>
  <g id="l-group2">
    <g class="cls-24">
      <polyline id="l-hash2" class="cls-12" points="543.958 9 539.458 18.5 527.583 38.159 518.083 55.875 514.083 64.75 512.583 71.125 514.708 72.375 520.333 70.75 524.833 67.5 528.245 63.375"/>
    </g>
  </g>
</svg>
