<?xml version="1.0" encoding="iso-8859-1"?>
<!-- Generator: Adobe Illustrator 21.0.0, SVG Export Plug-In . SVG Version: 6.00 Build 0)  -->
<svg xmlns="http://www.w3.org/2000/svg" xmlns:xlink="http://www.w3.org/1999/xlink" version="1.1" id="Capa_1" x="0px" y="0px" viewBox="0 0 512 512" style="enable-background:new 0 0 512 512;" xml:space="preserve" width="512" height="512">
<g>
	<g>
		<path fill="#e0a458" d="M256,421c-32.861,0-64.333-8.935-88.62-25.159c-40-26.643-39.256-52.268-31.586-69.071    c7.257-15.896,22.584-25.771,40-25.771c17.961,0,28.831,7.883,38.421,14.838c10.443,7.573,20.306,14.727,43.615,14.727    c12.98,0,43.169-1.419,43.169-14.565c0-8.691-18.925-15-45-15c-76.962,0-135-45.14-135-105c0-29.347,13.858-56.088,39.021-75.297    c24.811-18.94,57.999-28.952,95.976-28.952c33.588,0,65.062,8.668,88.624,24.408c28.305,18.854,39.831,39.562,34.24,61.539    C373.872,197.306,356.332,211,336.206,211c-17.961,0-28.831-7.883-38.421-14.838c-10.442-7.573-20.306-14.727-43.615-14.727    c-12.98,0-43.169,1.419-43.169,14.564c0,8.691,18.925,15,45,15c76.962,0,135,45.14,135,105c0,29.184-14.209,56.064-40.009,75.688    C326.141,410.59,292.406,421,256,421z M175.794,331c-8.307,0-11.829,6.298-12.71,8.229c-1.533,3.358-6.198,13.577,20.943,31.655    C203.452,383.86,229.007,391,256,391c29.885,0,57.169-8.235,76.829-23.189C350.995,353.993,361,335.593,361,316    c0-42.757-45.14-75-105-75c-20.317,0-36.995-3.005-49.569-8.932C184.304,221.64,181,204.994,181,196    c0-15.572,8.214-28.251,23.129-35.701c11.939-5.964,28.308-8.863,50.04-8.863c33.042,0,49.333,11.814,61.227,20.44    c8.497,6.162,12.931,9.124,20.809,9.124c7.501,0,12.226-5.373,13.581-10.699c0.665-2.614,0.791-5.06-0.756-8.5    c-1.951-4.337-7.187-11.447-21.058-20.686c-18.429-12.311-44.658-19.365-71.977-19.365C195.157,121.751,151,152.977,151,196    c0,42.757,45.14,75,105,75c20.317,0,36.995,3.005,49.569,8.932C327.696,290.36,331,307.006,331,316    c0,15.572-8.214,28.251-23.129,35.701c-11.939,5.964-28.308,8.864-50.04,8.864c-33.042,0-49.333-11.814-61.228-20.441    C188.106,333.962,183.673,331,175.794,331z"/>
	</g>
	<g>
		<path fill="#e0a458" d="M391,512c-25.231,0-50.078-8.378-70.813-23.742C299.318,494.062,277.764,497,256,497    c-64.014,0-124.435-25.167-170.134-70.866S15,320.014,15,256c0-21.763,2.938-43.317,8.743-64.187C8.378,171.079,0,146.231,0,121    c0-32.005,12.673-62.304,35.685-85.315C58.696,12.673,88.995,0,121,0c25.231,0,50.079,8.378,70.813,23.743    C212.683,17.938,234.237,15,256,15c64.014,0,124.435,25.167,170.134,70.866S497,191.986,497,256    c0,21.763-2.938,43.317-8.743,64.187C503.622,340.922,512,365.769,512,391c0,32.005-12.673,62.304-35.685,85.315    C453.304,499.327,423.005,512,391,512z M323.396,456.664c3.512,0,6.967,1.234,9.716,3.571C349.864,474.474,369.881,482,391,482    c49.327,0,91-41.673,91-91c0-21.118-7.526-41.136-21.766-57.888c-3.34-3.929-4.427-9.299-2.879-14.218    C463.755,298.559,467,277.397,467,256c0-116.346-94.654-211-211-211c-21.397,0-42.559,3.245-62.895,9.645    c-4.919,1.548-10.289,0.46-14.218-2.879C162.136,37.526,142.119,30,121,30c-49.327,0-91,41.673-91,91    c0,21.119,7.526,41.136,21.766,57.888c3.34,3.929,4.427,9.298,2.879,14.217C48.245,213.442,45,234.603,45,256    c0,116.346,94.654,211,211,211c21.398,0,42.56-3.245,62.895-9.644C320.372,456.891,321.889,456.664,323.396,456.664z"/>
	</g>
</g>















</svg>
